<?xml version="1.0" standalone="no"?>
<!DOCTYPE svg PUBLIC "-//W3C//DTD SVG 20010904//EN"
 "http://www.w3.org/TR/2001/REC-SVG-20010904/DTD/svg10.dtd">
<svg version="1.0" xmlns="http://www.w3.org/2000/svg"
 width="64.000000pt" height="64.000000pt" viewBox="0 0 64.000000 64.000000"
 preserveAspectRatio="xMidYMid meet">

<g transform="translate(0.000000,64.000000) scale(0.100000,-0.100000)"
fill="#000000" stroke="none">
<path d="M262 588 c-23 -23 -12 -28 58 -28 39 0 70 4 70 8 0 19 -27 32 -70 32
-25 0 -51 -5 -58 -12z"/>
<path d="M360 535 c0 -7 -5 -37 -11 -65 -9 -40 -15 -50 -31 -50 -16 0 -19 -5
-15 -22 4 -12 1 -28 -6 -36 -9 -11 -8 -17 6 -27 23 -17 25 -180 2 -189 -11 -4
-15 -20 -15 -56 0 -48 1 -50 28 -50 21 0 24 -2 12 -10 -8 -5 -27 -10 -42 -10
-16 0 -28 -4 -28 -10 0 -6 27 -10 60 -10 33 0 60 3 60 7 0 3 -7 15 -16 24 -14
15 -17 50 -21 204 -2 117 0 185 6 185 5 0 13 21 16 48 4 26 9 55 12 65 2 9 0
17 -6 17 -6 0 -11 -7 -11 -15z"/>
</g>
</svg>
